<svg version="1" xmlns="http://www.w3.org/2000/svg" width="864" height="864" viewBox="0 0 648.000000 648.000000"><path d="M73 1.5C38.1 8.6 11.9 33.6 2.3 69 .6 75.1.5 89.6.5 324c0 239.9.1 248.7 1.9 255.4 9 33.5 32.7 57.2 66.2 66.2 6.7 1.8 15.5 1.9 255.4 1.9s248.7-.1 255.4-1.9c33.5-9 57.2-32.7 66.2-66.2 1.8-6.7 1.9-15.5 1.9-255.4s-.1-248.7-1.9-255.4c-9-33.3-31.9-56.2-66.1-66.3-5.7-1.7-19.9-1.8-253-2C125.3.2 78.3.4 73 1.5zM467.9 39c12.5 1.3 21.1 3.9 32.1 9.6 28.1 14.7 45.2 41.7 47.3 74.8.2 3.9.2 3.9 6.2 5.6 19.5 5.3 35.8 21.9 40.9 41.6.9 3.4 1.6 10.2 1.6 15.2 0 22.6-12.1 41.9-32.7 52.1-12.7 6.3-7.2 6.1-138.4 6.1-115.8 0-119.8-.1-127.3-2-26.2-6.7-43.8-29.1-43.9-56-.1-17.4 5-29.7 17.3-42 8-8 16.4-13 25.7-15.1l5.1-1.2 1.1-7.6c1.3-9 6.1-19.6 11.7-26 14.8-17 42.9-21.3 61.7-9.4 2.6 1.6 4.2 2.2 4.5 1.4.2-.6 2.5-4.4 5.1-8.3 14.3-21.7 37.8-36 63.6-38.8 3.9-.4 7.3-.8 7.6-.9.4 0 5.2.4 10.8.9zM246 386.5c31.3 7.7 54.3 33.9 56.7 64.5l.6 7.9 6.6 2c30.8 9.4 44 46.3 26.3 73.7-6.8 10.5-16.3 17.2-28.9 20.4-7.3 1.9-11.5 2-106.2 2-105.5 0-106.4-.1-116.2-5-11.5-5.8-21.5-17-25.4-28.5-2.3-6.8-3-18.7-1.6-25.8 3.7-17.5 18.4-32.9 35.9-37.6 3.6-1 4.2-1.6 4.2-3.9 0-1.5.6-5 1.4-7.8 6.8-25.5 34.3-38 58.1-26.4 3.3 1.6 6 2.8 6 2.7 0-.1 1.8-2.9 3.9-6.1 17.1-26.4 48.9-39.4 78.6-32.1z"/></svg>